<?xml version="1.0" encoding="UTF-8"?>
<svg xmlns="http://www.w3.org/2000/svg" xmlns:xlink="http://www.w3.org/1999/xlink" width="5000" height="5000" viewBox="0 0 5000 5000">
<path fill-rule="evenodd" fill="rgb(40.989685%, 73.046875%, 78.90625%)" fill-opacity="1" d="M 2055.238281 2764.621094 L 642.394531 2764.621094 L 642.394531 3920.320312 L 2055.238281 3920.320312 L 2055.238281 2764.621094 "/>
<path fill-rule="evenodd" fill="rgb(40.989685%, 73.046875%, 78.90625%)" fill-opacity="1" d="M 3374.421875 1979.878906 C 3374.421875 1979.878906 3718.878906 1512.179688 3718.988281 1311.660156 C 3719.078125 1121.671875 3564.921875 967.351562 3374.941406 967.25 C 3184.960938 967.140625 3030.628906 1121.300781 3030.539062 1311.289062 C 3030.429688 1511.808594 3374.421875 1979.878906 3374.421875 1979.878906 "/>
<path fill-rule="evenodd" fill="rgb(0%, 0%, 0%)" fill-opacity="1" d="M 4289.421875 2605.570312 L 2888.851562 2605.570312 C 2786.109375 2605.570312 2687.578125 2646.378906 2614.929688 2719.03125 C 2542.28125 2791.679688 2501.46875 2890.21875 2501.46875 2992.960938 C 2501.46875 3095.699219 2542.28125 3194.230469 2614.929688 3266.878906 C 2687.578125 3339.53125 2786.109375 3380.339844 2888.851562 3380.339844 L 3711.609375 3380.339844 C 3890.128906 3380.339844 4034.851562 3525.058594 4034.851562 3703.578125 C 4034.851562 3789.308594 4000.789062 3871.53125 3940.171875 3932.148438 C 3879.550781 3992.769531 3797.328125 4026.828125 3711.609375 4026.828125 L 1994.148438 4026.828125 C 1976.449219 4026.828125 1962.078125 4041.199219 1962.078125 4058.898438 C 1962.078125 4076.597656 1976.449219 4090.96875 1994.148438 4090.96875 L 3711.609375 4090.96875 C 3814.351562 4090.96875 3912.878906 4050.15625 3985.53125 3977.511719 C 4058.179688 3904.859375 4098.988281 3806.328125 4098.988281 3703.578125 C 4098.988281 3493.339844 3931.5 3322.210938 3722.679688 3316.359375 L 3722.578125 3316.339844 C 3721.558594 3316.25 3720.53125 3316.199219 3719.5 3316.199219 L 2888.851562 3316.199219 C 2803.121094 3316.199219 2720.898438 3282.140625 2660.28125 3221.519531 C 2599.660156 3160.898438 2565.609375 3078.691406 2565.609375 2992.960938 C 2565.609375 2907.230469 2599.660156 2825.011719 2660.28125 2764.390625 C 2720.898438 2703.769531 2803.121094 2669.710938 2888.851562 2669.710938 L 4289.421875 2669.710938 C 4392.160156 2669.710938 4490.699219 2628.898438 4563.351562 2556.25 C 4635.988281 2483.601562 4676.808594 2385.070312 4676.808594 2282.328125 C 4676.808594 2179.589844 4635.988281 2081.050781 4563.351562 2008.410156 C 4490.699219 1935.761719 4392.160156 1894.941406 4289.421875 1894.941406 C 4080.75 1894.941406 3857.609375 1894.941406 3857.609375 1894.941406 C 3839.910156 1894.941406 3825.539062 1909.308594 3825.539062 1927.011719 C 3825.539062 1944.710938 3839.910156 1959.089844 3857.609375 1959.089844 C 3857.609375 1959.089844 4080.75 1959.089844 4289.421875 1959.089844 C 4375.148438 1959.089844 4457.371094 1993.140625 4517.988281 2053.761719 C 4578.609375 2114.378906 4612.660156 2196.601562 4612.660156 2282.328125 C 4612.660156 2368.058594 4578.609375 2450.28125 4517.988281 2510.898438 C 4457.371094 2571.519531 4375.148438 2605.570312 4289.421875 2605.570312 "/>
<path fill-rule="evenodd" fill="rgb(0%, 0%, 0%)" fill-opacity="1" d="M 3530.550781 1961.011719 C 3542.261719 1979.761719 3562.800781 1991.148438 3584.898438 1991.160156 C 3607.011719 1991.171875 3627.558594 1979.800781 3639.289062 1961.070312 C 3639.289062 1961.070312 3789.570312 1721.070312 3879.820312 1505.089844 C 3921.558594 1405.191406 3949.738281 1309.609375 3949.769531 1241.640625 C 3949.878906 1040.46875 3786.640625 877.070312 3585.480469 876.960938 C 3384.308594 876.851562 3220.898438 1040.089844 3220.800781 1241.25 C 3220.769531 1309.21875 3248.851562 1404.828125 3290.488281 1504.769531 C 3380.511719 1720.859375 3530.550781 1961.011719 3530.550781 1961.011719 Z M 3584.941406 1927.011719 C 3584.941406 1927.011719 3885.53125 1447.28125 3885.628906 1241.609375 C 3885.71875 1075.839844 3751.210938 941.191406 3585.441406 941.101562 C 3419.679688 941.011719 3285.03125 1075.519531 3284.941406 1241.28125 C 3284.839844 1446.960938 3584.941406 1927.011719 3584.941406 1927.011719 Z M 3578.429688 1005.03125 C 3440.789062 1005.03125 3326.589844 1123.101562 3326.589844 1271.371094 C 3326.589844 1419.628906 3440.789062 1537.699219 3578.429688 1537.699219 C 3716.070312 1537.699219 3830.28125 1419.628906 3830.28125 1271.371094 C 3830.28125 1123.101562 3716.070312 1005.03125 3578.429688 1005.03125 Z M 3578.429688 1069.171875 C 3682.03125 1069.171875 3766.140625 1159.769531 3766.140625 1271.371094 C 3766.140625 1382.960938 3682.03125 1473.558594 3578.429688 1473.558594 C 3474.839844 1473.558594 3390.730469 1382.960938 3390.730469 1271.371094 C 3390.730469 1159.769531 3474.839844 1069.171875 3578.429688 1069.171875 "/>
<path fill-rule="evenodd" fill="rgb(0%, 0%, 0%)" fill-opacity="1" d="M 1800.179688 2928.808594 L 387.335938 2928.808594 C 351.910156 2928.808594 323.191406 2957.53125 323.191406 2992.960938 L 323.191406 4058.898438 C 323.191406 4094.324219 351.910156 4123.039062 387.335938 4123.039062 L 1800.179688 4123.039062 C 1835.601562 4123.039062 1864.320312 4094.324219 1864.320312 4058.898438 L 1864.320312 2992.960938 C 1864.320312 2957.53125 1835.601562 2928.808594 1800.179688 2928.808594 Z M 1225.96875 2992.960938 L 1225.96875 3397.339844 C 1225.96875 3432.769531 1197.261719 3461.480469 1161.828125 3461.480469 L 1025.679688 3461.480469 C 990.257812 3461.480469 961.539062 3432.769531 961.539062 3397.339844 L 961.539062 2992.960938 L 387.335938 2992.960938 L 387.335938 4058.898438 L 1800.179688 4058.898438 L 1800.179688 2992.960938 Z M 824.578125 3803.78125 C 824.578125 3768.359375 795.859375 3739.640625 760.433594 3739.640625 L 524.355469 3739.640625 C 488.929688 3739.640625 460.214844 3768.359375 460.214844 3803.78125 L 460.214844 3920.320312 C 460.214844 3955.738281 488.929688 3984.460938 524.355469 3984.460938 L 760.433594 3984.460938 C 795.859375 3984.460938 824.578125 3955.738281 824.578125 3920.320312 Z M 760.433594 3803.78125 L 524.355469 3803.78125 L 524.355469 3920.320312 L 760.433594 3920.320312 Z M 1161.828125 2992.960938 L 1025.679688 2992.960938 L 1025.679688 3397.339844 L 1161.828125 3397.339844 L 1161.828125 2992.960938 "/>
</svg>
